<svg width="40" height="40" viewBox="0 0 40 40" fill="none" xmlns="http://www.w3.org/2000/svg">
<path d="M30 0H10C4.47715 0 0 4.47715 0 10V30C0 35.5228 4.47715 40 10 40H30C35.5228 40 40 35.5228 40 30V10C40 4.47715 35.5228 0 30 0Z" fill="#7528CD"/>
<g clip-path="url(#clip0_13690_79097)">
<path d="M15.6697 10.6094C18.2233 10.5885 20.7769 10.5885 23.3325 10.6094C23.2862 10.6969 23.1936 10.8719 23.1472 10.9594C22.1463 12.7427 21.1213 14.5115 20.1163 16.2927C19.7055 16.274 19.2967 16.274 18.8879 16.2927C17.8829 14.5094 16.8559 12.7385 15.8529 10.9531C15.8086 10.8677 15.716 10.6948 15.6697 10.6094Z" fill="black"/>
<path d="M7.28978 6.98464C7.83152 6.78255 8.4236 6.85547 8.98951 6.82422L9.1043 7.04089C11.0779 10.568 13.1019 14.0638 15.0815 17.5888C14.4089 18.0492 13.7946 18.6055 13.269 19.2388C11.2048 15.6471 9.13048 12.0638 7.0602 8.47839C6.73395 8.02005 6.74805 7.25755 7.28978 6.98464Z" fill="#F03A17"/>
<path d="M10.8906 7.02083L10.7939 6.85833C11.7062 6.83542 12.6185 6.85 13.5308 6.84375L13.5651 6.90833C14.3062 8.27083 15.0815 9.61042 15.8528 10.9521C16.8558 12.7375 17.8828 14.5083 18.8878 16.2917C18.0601 16.3437 17.2424 16.5333 16.4731 16.8521C14.6284 13.5646 12.7575 10.2937 10.8906 7.02083Z" fill="#F03A17"/>
<path d="M25.4369 6.90859L25.4752 6.83984C26.3854 6.84818 27.2977 6.83359 28.21 6.85651L28.1134 7.01901C26.2445 10.2919 24.3796 13.5648 22.5309 16.8503C21.7595 16.5315 20.9439 16.3419 20.1162 16.2898C21.1211 14.5086 22.1462 12.7398 23.1471 10.9565C23.9204 9.61276 24.6958 8.27109 25.4369 6.90859Z" fill="#F03A17"/>
<path d="M29.938 6.96551L30.1011 6.86342C30.5824 6.78217 31.0839 6.83842 31.5632 6.93009C32.1492 7.06759 32.3244 7.85926 32.0062 8.33842C29.9259 11.978 27.8173 15.6009 25.735 19.2384C25.2094 18.603 24.5951 18.0468 23.9185 17.5884C25.9102 14.0384 27.9543 10.5197 29.938 6.96551Z" fill="#F03A17"/>
<path d="M9.1043 7.04089L9.00562 6.8513C9.59367 6.84714 10.1817 6.84922 10.7718 6.82422L10.8906 7.02005C12.7575 10.293 14.6284 13.5638 16.4731 16.8513C15.9938 17.0638 15.5266 17.3055 15.0815 17.5888C13.1019 14.0638 11.0779 10.568 9.1043 7.04089Z" fill="white"/>
<path d="M28.1135 7.02187L28.2323 6.82812C28.766 6.85312 29.3017 6.82396 29.8354 6.87604L29.9381 6.96771C27.9544 10.5219 25.9103 14.0406 23.9186 17.5906C23.4735 17.3094 23.0103 17.0635 22.531 16.8531C24.3798 13.5677 26.2446 10.2948 28.1135 7.02187Z" fill="white"/>
<path d="M13.5652 6.90924C15.9416 6.76549 18.324 6.88424 20.7044 6.84674C22.2813 6.88008 23.8642 6.77174 25.4371 6.91133C24.6959 8.27383 23.9206 9.61549 23.1473 10.9592C23.1936 10.8717 23.2862 10.6967 23.3325 10.6092C20.7769 10.5884 18.2233 10.5884 15.6697 10.6092C15.716 10.6947 15.8087 10.8676 15.853 10.953C15.0816 9.61133 14.3063 8.27174 13.5652 6.90924Z" fill="#AF0D1A"/>
<path d="M16.4732 16.8518C17.2425 16.5331 18.0601 16.3435 18.8879 16.2914C19.2967 16.2727 19.7055 16.2727 20.1163 16.2914C20.944 16.3435 21.7597 16.5331 22.531 16.8518C23.0103 17.0622 23.4735 17.3081 23.9186 17.5893C24.5952 18.0477 25.2095 18.6039 25.7351 19.2393C26.9756 20.7831 27.7027 22.7768 27.6563 24.7914C27.6583 27.5997 26.152 30.3185 23.8642 31.8081C21.083 33.6893 17.162 33.5227 14.556 31.381C12.5361 29.8039 11.2854 27.2102 11.3458 24.5852C11.3479 22.6393 12.0708 20.731 13.2691 19.2393C13.7947 18.606 14.409 18.0497 15.0816 17.5893C15.5267 17.306 15.9939 17.0643 16.4732 16.8518ZM18.1488 19.2372C15.8549 19.8268 14.0505 22.1081 14.0888 24.5747C13.9901 26.5706 15.0715 28.5414 16.739 29.531C18.6502 30.7497 21.2763 30.5164 22.9821 29.0143C24.8872 27.4414 25.4672 24.4789 24.3918 22.2352C23.3285 19.8831 20.5775 18.5352 18.1488 19.2372Z" fill="#FFB900"/>
<path d="M17.6111 22.7432C17.5527 21.9682 18.0239 21.3036 18.6704 20.9661C19.2423 20.889 19.8203 20.9348 20.3943 20.9411C20.4285 22.7973 20.3862 24.6536 20.4124 26.5098C20.7205 26.5432 21.0307 26.5765 21.3388 26.6119C21.3408 27.2161 21.3328 27.8202 21.3126 28.4244C20.0962 28.4473 18.8798 28.4473 17.6635 28.4223C17.6574 27.8452 17.6212 27.264 17.6957 26.689C17.9454 26.4994 18.2958 26.5661 18.5858 26.489C18.6039 25.2827 18.5959 24.0765 18.5919 22.8702C18.2656 22.8286 17.9373 22.7848 17.6111 22.7432Z" fill="#FFB900"/>
<path d="M18.1488 19.2367C20.5775 18.5347 23.3285 19.8826 24.3918 22.2347C25.4672 24.4784 24.8872 27.4409 22.9821 29.0138C21.2763 30.5159 18.6502 30.7492 16.739 29.5305C15.0715 28.5409 13.9901 26.5701 14.0888 24.5742C14.0505 22.1076 15.8549 19.8263 18.1488 19.2367ZM17.611 22.743C17.9373 22.7847 18.2656 22.8284 18.5918 22.8701C18.5958 24.0763 18.6039 25.2826 18.5858 26.4888C18.2958 26.5659 17.9453 26.4992 17.6956 26.6888C17.6211 27.2638 17.6574 27.8451 17.6634 28.4222C18.8798 28.4472 20.0962 28.4472 21.3126 28.4242C21.3327 27.8201 21.3408 27.2159 21.3388 26.6117C21.0306 26.5763 20.7205 26.543 20.4124 26.5097C20.3862 24.6534 20.4285 22.7972 20.3942 20.9409C19.8203 20.9347 19.2423 20.8888 18.6703 20.9659C18.0239 21.3034 17.5526 21.968 17.611 22.743Z" fill="#D48C00"/>
</g>
<defs>
<clipPath id="clip0_13690_79097">
<rect width="29" height="30" fill="white" transform="translate(5 5)"/>
</clipPath>
</defs>
</svg>
