<svg width="40" height="40" viewBox="0 0 40 40" fill="none" xmlns="http://www.w3.org/2000/svg">
<mask id="mask0_13795_19244" style="mask-type:alpha" maskUnits="userSpaceOnUse" x="0" y="0" width="40" height="40">
<path d="M30 0H10C4.47715 0 0 4.47715 0 10V30C0 35.5228 4.47715 40 10 40H30C35.5228 40 40 35.5228 40 30V10C40 4.47715 35.5228 0 30 0Z" fill="white"/>
</mask>
<g mask="url(#mask0_13795_19244)">
<path d="M30 0H10C4.47715 0 0 4.47715 0 10V30C0 35.5228 4.47715 40 10 40H30C35.5228 40 40 35.5228 40 30V10C40 4.47715 35.5228 0 30 0Z" fill="#2E8DFD"/>
<path d="M31.4234 10.9758C31.4234 9.83109 30.4869 8.89453 29.3422 8.89453H9.50063C8.04907 8.89453 6.86157 10.082 6.86157 11.5336V13.9545C6.86157 19.4774 11.3387 23.9545 16.8616 23.9545H21.6294C27.0385 23.9545 31.4234 19.5696 31.4234 14.1605V10.9758Z" fill="#2A5083"/>
<path d="M27.8716 8.89453H25.8975C25.77 8.89453 25.6483 8.9478 25.5618 9.04147C25.3846 9.23329 25.083 9.23794 24.9 9.05167L24.8857 9.03709C24.7961 8.9459 24.6736 8.89453 24.5458 8.89453H9.50063C8.04907 8.89453 6.86157 10.082 6.86157 11.5336C6.86157 12.9852 8.04907 14.1727 9.50063 14.1727H27.8719C29.3234 14.1727 30.5109 12.9852 30.5109 11.5336C30.5109 10.082 29.3231 8.89453 27.8716 8.89453Z" fill="#153A56"/>
<path d="M30.004 8.89453C26.8112 8.89453 24.1469 11.3325 23.8642 14.5127L23.4438 19.2418C23.2187 21.7742 25.2138 23.9545 27.7562 23.9545C30.1472 23.9545 32.0855 22.0162 32.0855 19.6252V14.1605V10.9758C32.0855 9.83109 31.1487 8.89453 30.004 8.89453Z" fill="#153A56"/>
<path d="M25.2363 9.39432L24.9388 8.89495L23.6354 6.70714C23.2635 6.08307 22.4597 5.8737 21.8307 6.23651L17.2229 8.89495L9.38676 13.4159C9.00073 13.6386 9.05499 14.1728 9.50066 14.1728H9.91066H27.8719C27.9653 14.1728 28.0231 14.071 27.9753 13.9908L25.2363 9.39432Z" fill="#30CE25"/>
<path d="M8.42407 31.8916H31.6088C32.4681 31.8916 33.1713 31.1884 33.1713 30.3291V15.7344C33.1713 14.875 32.4681 14.1719 31.6088 14.1719H8.42407C7.5647 14.1719 6.86157 14.875 6.86157 15.7344V30.3288C6.86157 31.1884 7.5647 31.8916 8.42407 31.8916Z" fill="#253858"/>
<path d="M27.8228 26.2428H33.6662C34.1818 26.2428 34.6037 25.8209 34.6037 25.3053V20.1094C34.6037 19.5938 34.1818 19.1719 33.6662 19.1719H27.8228C26.3631 19.1719 25.1687 20.3663 25.1687 21.8259V23.5884C25.1687 25.0484 26.3631 26.2428 27.8228 26.2428Z" fill="#153A56"/>
<path d="M28.8975 24.3239C29.7885 24.3239 30.5107 23.6017 30.5107 22.7108C30.5107 21.8199 29.7885 21.0977 28.8975 21.0977C28.0066 21.0977 27.2844 21.8199 27.2844 22.7108C27.2844 23.6017 28.0066 24.3239 28.8975 24.3239Z" fill="white"/>
<path d="M18.8046 26.682C20.9982 26.682 22.7765 24.9038 22.7765 22.7102C22.7765 20.5165 20.9982 18.7383 18.8046 18.7383C16.611 18.7383 14.8328 20.5165 14.8328 22.7102C14.8328 24.9038 16.611 26.682 18.8046 26.682Z" fill="#BABEC6"/>
<path opacity="0.5" d="M25.7394 14.0379L22.5041 8.61538C22.3651 8.38226 22.0604 8.30507 21.8269 8.44444L19.0451 10.1041C18.8119 10.2432 18.7348 10.5479 18.8741 10.7813C19.0132 11.0144 19.3179 11.0916 19.5513 10.9523C20.8535 10.1753 22.539 10.601 23.316 11.9032L24.4945 13.8784C24.6036 14.0612 24.8008 14.1732 25.0136 14.1732H25.6469C25.7209 14.1732 25.7772 14.1015 25.7394 14.0379Z" fill="white"/>
<path opacity="0.5" d="M16.2587 14.1744C17.7781 14.1744 18.5811 12.5324 17.1066 12.1658C16.8351 12.0983 16.551 12.0625 16.2585 12.0625C15.9662 12.0625 15.6822 12.0983 15.4108 12.1657C13.9362 12.5321 14.7393 14.1744 16.2587 14.1744Z" fill="white"/>
<path d="M26.5565 11.8103C25.7397 10.3387 26.53 8.49197 28.1584 8.06685C28.8681 7.88154 29.5937 8.30654 29.779 9.01654L30.5602 12.0079C30.8463 13.1038 30.0194 14.1744 28.8868 14.1744C28.2585 14.1744 27.6796 13.8336 27.3746 13.2842L26.5565 11.8103Z" fill="#30CE25"/>
<path opacity="0.5" d="M29.3181 14.174C29.3181 14.174 29.318 14.1741 29.318 14.174L28.2275 10.2408C28.155 9.97897 27.8812 9.82428 27.6197 9.89678L26.3966 10.2359C26.0887 10.3212 25.9417 10.6721 26.0968 10.9514C26.2075 11.1509 26.4406 11.2485 26.6604 11.1875L26.7801 11.1543C27.1268 11.0582 27.4857 11.2613 27.5819 11.6079L28.1751 13.7474C28.245 13.9995 28.4745 14.174 28.736 14.174H29.3181C29.3181 14.174 29.3181 14.174 29.3181 14.174Z" fill="white"/>
<path opacity="0.1" d="M26.0421 8.61893C26.4977 8.49997 26.9661 8.76058 27.1053 9.21036L28.4817 13.6593C28.5608 13.9148 28.3698 14.1737 28.1024 14.1737C27.9582 14.1737 27.8253 14.0955 27.7553 13.9694L25.495 9.89764C25.216 9.39501 25.4859 8.76419 26.0421 8.61893Z" fill="#153A56"/>
<path opacity="0.1" d="M30.7237 13.1172H9.1537C8.76719 13.1172 8.45386 13.4305 8.45386 13.817C8.45386 14.2035 8.76719 14.5169 9.1537 14.5169H30.7237C31.1102 14.5169 31.4235 14.2035 31.4235 13.817C31.4235 13.4305 31.1102 13.1172 30.7237 13.1172Z" fill="#153A56"/>
</g>
</svg>
