<svg width="40" height="40" viewBox="0 0 40 40" fill="none" xmlns="http://www.w3.org/2000/svg">
<rect width="40" height="40" rx="10" fill="#7528CD"/>
<path d="M28.2203 6H11.7693C10.2903 6 9.11304 7.20741 9.11304 8.65631V30.601C9.11304 32.0801 10.3204 33.2573 11.7693 33.2573H28.1902C29.6692 33.2573 30.8465 32.0499 30.8465 30.601V8.68649C30.8766 7.20741 29.6692 6 28.2203 6Z" fill="white"/>
<path d="M27.6168 12.8211H13.8825C13.3995 12.8211 13.0071 12.4287 13.0071 11.9457C13.0071 11.4627 13.3995 11.0703 13.8825 11.0703H27.6168C28.0997 11.0703 28.4921 11.4627 28.4921 11.9457C28.4921 12.4287 28.0997 12.8211 27.6168 12.8211Z" fill="#D3E0EA"/>
<path d="M27.6168 16.7156H13.8825C13.3995 16.7156 13.0071 16.3232 13.0071 15.8402C13.0071 15.3573 13.3995 14.9648 13.8825 14.9648H27.6168C28.0997 14.9648 28.4921 15.3573 28.4921 15.8402C28.4921 16.3232 28.0997 16.7156 27.6168 16.7156Z" fill="#D3E0EA"/>
<path d="M19.1649 20.6101H13.8825C13.3995 20.6101 13.0071 20.2177 13.0071 19.7347C13.0071 19.2518 13.3995 18.8594 13.8825 18.8594H19.1649C19.6478 18.8594 20.0403 19.2518 20.0403 19.7347C20.0403 20.2177 19.6478 20.6101 19.1649 20.6101Z" fill="#D3E0EA"/>
<path d="M10.5619 28.4578H7.87537C7.39241 28.4578 7 28.0654 7 27.5824C7 27.0994 7.39241 26.707 7.87537 26.707H10.5619C11.0448 26.707 11.4372 27.0994 11.4372 27.5824C11.4372 28.0654 11.0448 28.4578 10.5619 28.4578Z" fill="#2A5083"/>
<path d="M10.5619 23.2664H7.87537C7.39241 23.2664 7 22.874 7 22.391C7 21.908 7.39241 21.5156 7.87537 21.5156H10.5619C11.0448 21.5156 11.4372 21.908 11.4372 22.391C11.4372 22.874 11.0448 23.2664 10.5619 23.2664Z" fill="#2A5083"/>
<path d="M10.5619 18.0437H7.87537C7.39241 18.0437 7 17.6513 7 17.1683C7 16.6854 7.39241 16.293 7.87537 16.293H10.5619C11.0448 16.293 11.4372 16.6854 11.4372 17.1683C11.4372 17.6513 11.0448 18.0437 10.5619 18.0437Z" fill="#2A5083"/>
<path d="M10.5619 12.8211H7.87537C7.39241 12.8211 7 12.4287 7 11.9457C7 11.4627 7.39241 11.0703 7.87537 11.0703H10.5619C11.0448 11.0703 11.4372 11.4627 11.4372 11.9457C11.4372 12.4287 11.0448 12.8211 10.5619 12.8211Z" fill="#2A5083"/>
<path d="M30.3034 10.7095C28.7338 9.89453 27.134 9.83416 26.7416 10.5888L25.4436 13.064L31.1184 16.0523L32.4164 13.547C32.8088 12.8225 31.8731 11.5245 30.3034 10.7095Z" fill="#FF4E4A"/>
<path d="M32.5067 13.2465C32.5671 12.4919 31.6615 11.4354 30.3032 10.7109L28.2808 14.5445L31.1182 16.0236L31.2993 15.6915L32.4161 13.5484C32.4765 13.4578 32.5067 13.3672 32.5067 13.2465Z" fill="#D63E3E"/>
<path d="M24.7175 14.4171L30.4121 17.4023L31.2951 15.718L25.6005 12.7328L24.7175 14.4171Z" fill="#EBF2F9"/>
<path d="M28.5223 16.4141L26.6206 15.418L24.7189 14.4219L19.0139 25.3188L20.9156 26.3149L22.8173 27.311L24.6888 28.3071L30.424 17.38L28.5223 16.4141Z" fill="#FFC400"/>
<path d="M22.425 26.0746L22.3646 25.8633L20.9157 26.3161L20.4629 24.8672L19.014 25.32L18.9838 25.3803C18.9235 25.4709 18.8933 25.5916 18.9235 25.7124L19.1348 28.7309L20.644 29.5157L22.425 26.0746Z" fill="#FFD49B"/>
<path d="M28.5225 16.3853L27.5566 15.9023L21.8516 26.7992L22.8175 27.3124L24.689 28.2783L25.4134 26.8898L30.394 17.3814L28.5225 16.3853Z" fill="#FF991F"/>
<path d="M21.8211 30.1496L24.4473 28.6101C24.5378 28.5498 24.6284 28.4592 24.6586 28.3687L24.6887 28.3083L24.236 26.8594L22.8173 27.3122L22.3645 25.8633L20.4326 29.4251C20.6137 29.5459 21.6098 30.2703 21.8211 30.1496Z" fill="#E2AD79"/>
<path d="M20.4327 29.4258L19.5271 31.086C19.5573 31.1162 19.6177 31.1463 19.6478 31.1463H19.678C19.7384 31.1765 19.7686 31.1765 19.829 31.1765H19.8591H20.0101H20.0403C20.1006 31.1765 20.161 31.1463 20.2214 31.1162L21.8514 30.1502L20.4327 29.4258Z" fill="#173E68"/>
<path d="M19.1348 28.7305L19.2555 30.602C19.2555 30.8133 19.3762 30.9642 19.5272 31.0547L20.4327 29.3945L19.1348 28.7305Z" fill="#2A5083"/>
</svg>
