<svg width="40" height="40" viewBox="0 0 40 40" fill="none" xmlns="http://www.w3.org/2000/svg">
<path d="M30 0H10C4.47715 0 0 4.47715 0 10V30C0 35.5228 4.47715 40 10 40H30C35.5228 40 40 35.5228 40 30V10C40 4.47715 35.5228 0 30 0Z" fill="#7528CD"/>
<path d="M7.80591 7.35313C15.9309 7.35104 24.0559 7.35104 32.183 7.35313C32.1788 9.22604 32.1809 11.0969 32.1809 12.9698C24.0559 12.9719 15.9309 12.9719 7.80591 12.9698C7.80591 11.0969 7.80799 9.22604 7.80591 7.35313Z" fill="#F03A17"/>
<path d="M12.4625 24.2201C12.8333 23.7763 13.3458 23.4742 13.8896 23.2972C14.2042 23.2867 14.5167 23.2867 14.8292 23.2951C15.425 23.5138 15.9479 23.9451 16.1542 24.5597C16.2 24.8763 16.2208 25.193 16.2354 25.5117C16.0937 26.1576 15.5833 26.6534 15.0104 26.9472C14.6521 26.9701 14.2917 26.9909 13.9312 26.9867C13.4375 26.818 13.175 26.3617 12.9437 25.9305C12.6812 25.9972 12.4208 26.0617 12.1562 26.1117C11.9479 25.4597 12.1104 24.7847 12.4625 24.2201ZM13.3833 24.5117L13.4437 24.643C13.1833 24.6555 12.85 25.0847 13.1375 25.2742C13.2604 25.2242 13.5021 25.1242 13.6229 25.0742C13.7812 25.4513 13.9792 25.8076 14.1604 26.1722C14.5167 26.0159 14.9979 25.9909 15.1937 25.6013C15.5729 25.0263 15.0354 24.168 14.3604 24.2201C14.0187 24.2555 13.7021 24.393 13.3833 24.5117Z" fill="#F03A17"/>
<path d="M7.80591 31.7312C7.80591 25.4771 7.80591 19.2229 7.80591 12.9688C15.9309 12.9708 24.0559 12.9708 32.1809 12.9688C32.1809 18.3312 32.183 23.6917 32.1809 29.0521L32.0455 29.0479C31.1559 28.9542 30.2622 28.8979 29.3684 28.9333C29.358 29.8312 29.3872 30.7312 29.4538 31.6271C28.258 31.8062 27.0434 31.7104 25.8392 31.7188C19.8288 31.7312 13.8184 31.7083 7.80591 31.7312ZM16.2476 15.775C16.2351 16.3958 16.2351 17.0188 16.2455 17.6417L18.1017 17.6479C18.1142 17.0229 18.1163 16.3958 18.108 15.7708C17.4872 15.7729 16.8684 15.7729 16.2476 15.775ZM19.0517 17.6417C19.6788 17.6417 20.3059 17.6417 20.933 17.6437C20.9309 17.0187 20.9288 16.3958 20.9247 15.7729C20.3059 15.7729 19.6851 15.7729 19.0663 15.7708C19.0601 16.3958 19.0559 17.0188 19.0517 17.6417ZM21.8726 15.7687C21.8601 16.3937 21.858 17.0188 21.8663 17.6417C22.4976 17.6437 23.1267 17.6417 23.758 17.6396C23.7663 17.0229 23.7684 16.4042 23.7663 15.7854C23.1351 15.7771 22.5038 15.7729 21.8726 15.7687ZM24.6747 17.6417H26.558C26.5559 17.0208 26.5559 16.3979 26.5517 15.7771C25.9351 15.7729 25.3205 15.7708 24.7038 15.7646C24.6872 16.3917 24.6809 17.0167 24.6747 17.6417ZM27.4705 15.7792C27.4705 16.3979 27.4705 17.0167 27.4726 17.6354C28.1101 17.6417 28.7476 17.6437 29.3851 17.6437C29.3913 17.0187 29.3892 16.3958 29.3747 15.7729C28.7392 15.7729 28.1059 15.775 27.4705 15.7792ZM10.5892 18.6062C10.5892 19.2271 10.5892 19.85 10.5913 20.4729C11.2163 20.475 11.8413 20.4771 12.4663 20.4771C12.4684 19.85 12.4705 19.2208 12.4705 18.5938C11.8434 18.5958 11.2163 18.6 10.5892 18.6062ZM13.4288 18.5958C13.4309 19.2229 13.433 19.85 13.4372 20.4771H15.308C15.3101 19.85 15.3122 19.2229 15.3142 18.5979C14.6851 18.5958 14.058 18.5958 13.4288 18.5958ZM16.2267 18.6042C16.2288 19.2292 16.2372 19.8521 16.2559 20.4771H18.0934C18.0934 19.8479 18.0955 19.2208 18.0955 18.5938C17.4726 18.5958 16.8497 18.6 16.2267 18.6042ZM19.0497 18.5958C19.0559 19.225 19.0622 19.8542 19.0767 20.4833C19.6934 20.4792 20.3101 20.4771 20.9267 20.475C20.9309 19.8479 20.9309 19.2229 20.9309 18.5979C20.3038 18.5958 19.6767 18.5958 19.0497 18.5958ZM21.8455 18.6021C21.8517 19.2271 21.8622 19.8521 21.8851 20.4771C22.5059 20.4771 23.1288 20.4771 23.7517 20.475C23.7642 19.85 23.7726 19.2271 23.7788 18.6021C23.133 18.6 22.4892 18.5979 21.8455 18.6021ZM24.6788 18.5958C24.6809 19.2229 24.683 19.85 24.6872 20.4771H26.5517C26.5538 19.85 26.5559 19.2229 26.558 18.5979C25.9309 18.5958 25.3059 18.5958 24.6788 18.5958ZM27.4726 18.6042C27.4705 19.2271 27.4705 19.8479 27.4705 20.4708C28.1038 20.475 28.7372 20.4771 29.3705 20.4771C29.3872 19.8521 29.3955 19.225 29.3955 18.6C28.7538 18.5979 28.1142 18.6 27.4726 18.6042ZM10.5913 21.4021C10.5892 22.0229 10.5892 22.6437 10.5892 23.2646C11.2163 23.2708 11.8434 23.2729 12.4705 23.2771C12.4705 22.65 12.4684 22.025 12.4684 21.3979C11.8413 21.3979 11.2163 21.4 10.5913 21.4021ZM13.4372 21.4C13.433 22.0354 13.4288 22.6708 13.4267 23.3063C13.5413 23.3042 13.7747 23.3 13.8892 23.2979C13.3455 23.475 12.833 23.7771 12.4622 24.2208C11.8372 24.2208 11.2142 24.225 10.5892 24.2292C10.5892 24.85 10.5892 25.4688 10.5913 26.0875C11.1122 26.0917 11.633 26.1021 12.1559 26.1125C12.4205 26.0625 12.6809 25.9979 12.9434 25.9312C13.1747 26.3625 13.4372 26.8187 13.9309 26.9875C13.808 26.9875 13.5622 26.9896 13.4392 26.9896C13.433 27.6271 13.4309 28.2625 13.4288 28.8979H15.3122C15.3163 28.3021 15.3517 27.7042 15.2809 27.1104C15.2122 27.0708 15.0788 26.9875 15.0101 26.9479C15.583 26.6542 16.0934 26.1583 16.2351 25.5125C16.2434 25.6583 16.2601 25.9521 16.2684 26.0979C16.8767 26.0979 17.483 26.0958 18.0913 26.0958C18.0934 25.4667 18.0955 24.8396 18.0955 24.2125C17.433 24.2188 16.7726 24.2292 16.1122 24.2562L16.1538 24.5604C15.9476 23.9458 15.4247 23.5146 14.8288 23.2958C14.9517 23.2979 15.1976 23.3021 15.3205 23.3042C15.3163 22.6687 15.3122 22.0333 15.3059 21.3979C14.683 21.3979 14.0601 21.3979 13.4372 21.4ZM16.2455 21.4C16.233 22.0229 16.2288 22.6437 16.2288 23.2646C16.8538 23.2708 17.4788 23.275 18.1038 23.2792C18.1163 22.6521 18.1163 22.025 18.108 21.3958C17.4872 21.3979 16.8663 21.3979 16.2455 21.4ZM19.0517 23.2729H20.933C20.9309 22.6479 20.9309 22.0229 20.9288 21.4C20.308 21.3979 19.6872 21.3979 19.0663 21.3958C19.0601 22.0208 19.0559 22.6479 19.0517 23.2729ZM21.8747 21.4C21.8601 22.0229 21.858 22.6479 21.8642 23.2729C22.4976 23.2729 23.1309 23.2729 23.7663 23.2688C23.7684 22.6458 23.7663 22.0229 23.7559 21.4C23.1288 21.3979 22.5017 21.3979 21.8747 21.4ZM24.6788 23.2729H26.558C26.5559 22.6479 26.5559 22.0229 26.5517 21.3979C25.9309 21.3979 25.3101 21.3979 24.6872 21.3979C24.683 22.0229 24.6809 22.6479 24.6788 23.2729ZM27.4726 21.4021C27.4705 22.025 27.4705 22.6458 27.4705 23.2667C28.1101 23.2708 28.7497 23.2729 29.3892 23.2708C29.3934 22.6479 29.3913 22.0229 29.3851 21.4C28.7476 21.3979 28.1101 21.4 27.4726 21.4021ZM19.0538 24.2208C19.0559 24.8479 19.058 25.4729 19.0642 26.0979C19.6851 26.0979 20.3059 26.0958 20.9267 26.0958C20.9288 25.4708 20.9309 24.8458 20.933 24.2229C20.3059 24.2208 19.6788 24.2208 19.0538 24.2208ZM21.8538 24.225C21.8538 24.8479 21.8622 25.4729 21.8809 26.0958C22.4997 26.0958 23.1163 26.0958 23.7351 26.0979C23.758 25.4729 23.7705 24.85 23.7747 24.2271C23.1351 24.2229 22.4955 24.2229 21.8538 24.225ZM24.6767 24.2208C24.6809 24.8479 24.6851 25.4729 24.6934 26.1C25.3142 26.0979 25.933 26.0958 26.5517 26.0938C26.5559 25.4708 26.5559 24.8458 26.5559 24.2229C25.9309 24.2208 25.3038 24.2208 24.6767 24.2208ZM27.4684 24.2292C27.4705 24.85 27.4726 25.4729 27.4809 26.0938C28.108 26.0958 28.733 26.0979 29.3601 26.0979C29.383 25.4729 29.3934 24.85 29.3955 24.225C28.7538 24.2229 28.1101 24.225 27.4684 24.2292ZM10.5892 27.0229C10.5892 27.6458 10.5913 28.2687 10.5955 28.8917C11.2205 28.8958 11.8455 28.8979 12.4705 28.9021C12.4705 28.2729 12.4684 27.6437 12.4684 27.0167C11.8413 27.0167 11.2163 27.0187 10.5892 27.0229ZM16.2517 27.0188C16.2351 27.6438 16.2309 28.2687 16.2372 28.8958C16.8559 28.8979 17.4767 28.8979 18.0955 28.9C18.0955 28.2729 18.0934 27.6458 18.0934 27.0188C17.4788 27.0167 16.8663 27.0167 16.2517 27.0188ZM19.0538 28.8979H20.933C20.9309 28.2708 20.9309 27.6458 20.9267 27.0188C20.3059 27.0167 19.683 27.0167 19.0622 27.0167C19.058 27.6437 19.0559 28.2708 19.0538 28.8979ZM21.8788 27.0188C21.8622 27.6438 21.8538 28.2687 21.8559 28.8958C22.4934 28.8958 23.133 28.8958 23.7705 28.8938C23.7705 28.2688 23.7642 27.6438 23.7497 27.0188C23.1247 27.0167 22.5017 27.0167 21.8788 27.0188Z" fill="#F2F2F2"/>
<path d="M13.1374 25.2758C12.8499 25.0862 13.1832 24.657 13.4436 24.6445C13.5103 24.7841 13.5707 24.9279 13.6228 25.0758C13.502 25.1258 13.2603 25.2258 13.1374 25.2758Z" fill="#F2F2F2"/>
<path d="M16.2474 15.7776C16.8683 15.7755 17.487 15.7755 18.1079 15.7734C18.1162 16.3984 18.1141 17.0255 18.1016 17.6505C17.4829 17.6484 16.8641 17.6464 16.2454 17.6443C16.2349 17.0214 16.2349 16.3984 16.2474 15.7776Z" fill="#A6A6A6"/>
<path d="M19.0518 17.6443C19.0559 17.0214 19.0601 16.3984 19.0663 15.7734C19.6851 15.7755 20.3059 15.7755 20.9247 15.7755C20.9288 16.3984 20.9309 17.0214 20.933 17.6464C20.3059 17.6443 19.6788 17.6443 19.0518 17.6443Z" fill="#A6A6A6"/>
<path d="M21.8723 15.7695C22.5036 15.7737 23.1348 15.7779 23.7661 15.7862C23.7682 16.4049 23.7661 17.0237 23.7578 17.6404C23.1265 17.6424 22.4973 17.6445 21.8661 17.6424C21.8578 17.0195 21.8598 16.3945 21.8723 15.7695Z" fill="#A6A6A6"/>
<path d="M24.6746 17.6427C24.6808 17.0177 24.6871 16.3927 24.7037 15.7656C25.3204 15.7719 25.935 15.774 26.5516 15.7781C26.5558 16.399 26.5558 17.0219 26.5579 17.6427C25.9287 17.6427 25.3016 17.6427 24.6746 17.6427Z" fill="#A6A6A6"/>
<path d="M27.4707 15.7797C28.1061 15.7755 28.7395 15.7734 29.3749 15.7734C29.3895 16.3964 29.3915 17.0193 29.3853 17.6443C28.7478 17.6443 28.1103 17.6422 27.4728 17.6359C27.4707 17.0172 27.4707 16.3984 27.4707 15.7797Z" fill="#A6A6A6"/>
<path d="M10.5891 18.6062C11.2162 18.6 11.8433 18.5958 12.4704 18.5938C12.4704 19.2208 12.4683 19.85 12.4662 20.4771C11.8412 20.4771 11.2162 20.475 10.5912 20.4729C10.5891 19.85 10.5891 19.2271 10.5891 18.6062Z" fill="#A6A6A6"/>
<path d="M13.4285 18.5977C14.0576 18.5977 14.6847 18.5977 15.3139 18.5997C15.3118 19.2247 15.3097 19.8518 15.3076 20.4789C14.6826 20.4789 14.0597 20.4789 13.4368 20.4789C13.4326 19.8518 13.4306 19.2247 13.4285 18.5977Z" fill="#A6A6A6"/>
<path d="M16.2263 18.6042C16.8492 18.6 17.4722 18.5958 18.0951 18.5938C18.0951 19.2208 18.093 19.8479 18.093 20.4771C17.4805 20.4771 16.868 20.4771 16.2555 20.4771C16.2367 19.8521 16.2284 19.2292 16.2263 18.6042Z" fill="#A6A6A6"/>
<path d="M19.0496 18.5977C19.6766 18.5977 20.3037 18.5977 20.9308 18.5997C20.9308 19.2247 20.9308 19.8497 20.9266 20.4768C20.31 20.4789 19.6933 20.481 19.0766 20.4852C19.0621 19.856 19.0558 19.2268 19.0496 18.5977Z" fill="#A6A6A6"/>
<path d="M21.8457 18.604C22.4895 18.5998 23.1332 18.6019 23.779 18.604C23.7728 19.229 23.7645 19.8519 23.752 20.4769C23.129 20.479 22.5061 20.479 21.8853 20.479C21.8624 19.854 21.852 19.229 21.8457 18.604Z" fill="#A6A6A6"/>
<path d="M24.6785 18.5977C25.3056 18.5977 25.9306 18.5977 26.5576 18.5997C26.5556 19.2247 26.5535 19.8518 26.5514 20.4789C25.9285 20.4789 25.3076 20.4789 24.6868 20.4789C24.6826 19.8518 24.6806 19.2247 24.6785 18.5977Z" fill="#A6A6A6"/>
<path d="M27.4728 18.6065C28.1145 18.6024 28.754 18.6003 29.3957 18.6024C29.3957 19.2274 29.3874 19.8545 29.3707 20.4795C28.7374 20.4795 28.104 20.4774 27.4707 20.4732C27.4707 19.8503 27.4707 19.2295 27.4728 18.6065Z" fill="#A6A6A6"/>
<path d="M10.5912 21.4026C11.2162 21.4005 11.8412 21.3984 12.4683 21.3984C12.4683 22.0255 12.4704 22.6505 12.4704 23.2776C11.8433 23.2734 11.2162 23.2714 10.5891 23.2651C10.5891 22.6443 10.5891 22.0234 10.5912 21.4026Z" fill="#A6A6A6"/>
<path d="M13.4372 21.4005C14.0601 21.3984 14.683 21.3984 15.3059 21.3984C15.3122 22.0339 15.3163 22.6693 15.3205 23.3047C15.1976 23.3026 14.9518 23.2984 14.8288 23.2964C14.5163 23.288 14.2038 23.288 13.8893 23.2984C13.7747 23.3005 13.5413 23.3047 13.4268 23.3068C13.4288 22.6714 13.433 22.0359 13.4372 21.4005Z" fill="#A6A6A6"/>
<path d="M16.2454 21.4026C16.8663 21.4005 17.4871 21.4005 18.1079 21.3984C18.1163 22.0276 18.1163 22.6547 18.1038 23.2818C17.4788 23.2776 16.8538 23.2734 16.2288 23.2672C16.2288 22.6464 16.2329 22.0255 16.2454 21.4026Z" fill="#A6A6A6"/>
<path d="M19.0518 23.2755C19.0559 22.6505 19.0601 22.0234 19.0663 21.3984C19.6872 21.4005 20.308 21.4005 20.9288 21.4026C20.9309 22.0255 20.9309 22.6505 20.933 23.2755C20.3059 23.2755 19.6788 23.2755 19.0518 23.2755Z" fill="#A6A6A6"/>
<path d="M21.8748 21.4C22.5019 21.3979 23.129 21.3979 23.7561 21.4C23.7665 22.0229 23.7686 22.6458 23.7665 23.2687C23.1311 23.2729 22.4977 23.2729 21.8644 23.2729C21.8582 22.6479 21.8602 22.0229 21.8748 21.4Z" fill="#A6A6A6"/>
<path d="M24.6785 23.2734C24.6806 22.6484 24.6826 22.0234 24.6868 21.3984H26.5514C26.5555 22.0234 26.5556 22.6484 26.5576 23.2734C25.9306 23.2734 25.3056 23.2734 24.6785 23.2734Z" fill="#A6A6A6"/>
<path d="M27.4728 21.4014C28.1103 21.3993 28.7478 21.3972 29.3853 21.3993C29.3915 22.0222 29.3936 22.6472 29.3895 23.2701C28.7499 23.2722 28.1103 23.2701 27.4707 23.266C27.4707 22.6451 27.4707 22.0243 27.4728 21.4014Z" fill="#A6A6A6"/>
<path d="M10.5891 24.231C11.2141 24.2268 11.837 24.2227 12.462 24.2227C12.1099 24.7872 11.9474 25.4622 12.1558 26.1143C11.6329 26.1039 11.112 26.0935 10.5912 26.0893C10.5891 25.4706 10.5891 24.8518 10.5891 24.231Z" fill="#A6A6A6"/>
<path d="M13.3828 24.5127C13.7016 24.3939 14.0182 24.2564 14.3599 24.221C15.0349 24.1689 15.5724 25.0273 15.1932 25.6023C14.9974 25.9918 14.5161 26.0168 14.1599 26.1731C13.9786 25.8085 13.7807 25.4523 13.6224 25.0752C13.5703 24.9273 13.5099 24.7835 13.4432 24.6439L13.3828 24.5127Z" fill="#A6A6A6"/>
<path d="M16.1123 24.2586C16.7727 24.2315 17.4331 24.2211 18.0956 24.2148C18.0956 24.8419 18.0936 25.469 18.0915 26.0982C17.4831 26.0982 16.8769 26.1003 16.2686 26.1003C16.2602 25.9544 16.2436 25.6607 16.2352 25.5148C16.2206 25.1961 16.1998 24.8794 16.154 24.5628L16.1123 24.2586Z" fill="#A6A6A6"/>
<path d="M19.0535 24.2227C19.6785 24.2227 20.3056 24.2227 20.9326 24.2247C20.9306 24.8477 20.9285 25.4727 20.9264 26.0977C20.3055 26.0977 19.6847 26.0997 19.0639 26.0997C19.0576 25.4747 19.0556 24.8497 19.0535 24.2227Z" fill="#A6A6A6"/>
<path d="M21.8538 24.2279C22.4954 24.2258 23.135 24.2258 23.7746 24.23C23.7704 24.8529 23.7579 25.4758 23.735 26.1008C23.1163 26.0988 22.4996 26.0988 21.8808 26.0988C21.8621 25.4758 21.8538 24.8508 21.8538 24.2279Z" fill="#A6A6A6"/>
<path d="M24.6768 24.2227C25.3038 24.2227 25.9309 24.2227 26.5559 24.2247C26.5559 24.8477 26.5559 25.4727 26.5518 26.0956C25.933 26.0977 25.3143 26.0997 24.6934 26.1018C24.6851 25.4747 24.6809 24.8497 24.6768 24.2227Z" fill="#A6A6A6"/>
<path d="M27.4683 24.2315C28.1099 24.2274 28.7537 24.2253 29.3953 24.2274C29.3933 24.8524 29.3828 25.4753 29.3599 26.1003C28.7328 26.1003 28.1078 26.0982 27.4808 26.0961C27.4724 25.4753 27.4703 24.8524 27.4683 24.2315Z" fill="#A6A6A6"/>
<path d="M13.9306 26.9888C14.291 26.993 14.6514 26.9721 15.0097 26.9492C15.0785 26.9888 15.2118 27.0721 15.2806 27.1117C15.3514 27.7055 15.316 28.3034 15.3118 28.8992C14.6847 28.8992 14.0556 28.8992 13.4285 28.8992C13.4306 28.2638 13.4326 27.6284 13.4389 26.9909C13.5618 26.9909 13.8076 26.9888 13.9306 26.9888Z" fill="#A6A6A6"/>
<path d="M10.5891 27.0258C11.2162 27.0216 11.8412 27.0195 12.4683 27.0195C12.4683 27.6466 12.4704 28.2758 12.4704 28.9049C11.8454 28.9008 11.2204 28.8987 10.5954 28.8945C10.5912 28.2716 10.5891 27.6487 10.5891 27.0258Z" fill="#A6A6A6"/>
<path d="M16.2517 27.0211C16.8663 27.019 17.4788 27.019 18.0934 27.0211C18.0934 27.6482 18.0955 28.2753 18.0955 28.9023C17.4767 28.9003 16.8559 28.9003 16.2371 28.8982C16.2309 28.2711 16.2351 27.6461 16.2517 27.0211Z" fill="#A6A6A6"/>
<path d="M19.0535 28.9008C19.0556 28.2737 19.0576 27.6466 19.0618 27.0195C19.6826 27.0195 20.3055 27.0195 20.9264 27.0216C20.9305 27.6487 20.9306 28.2737 20.9326 28.9008C20.3056 28.9008 19.6785 28.9008 19.0535 28.9008Z" fill="#A6A6A6"/>
<path d="M21.8787 27.0211C22.5016 27.019 23.1245 27.019 23.7495 27.0211C23.7641 27.6461 23.7704 28.2711 23.7704 28.8961C23.1329 28.8982 22.4933 28.8982 21.8558 28.8982C21.8537 28.2711 21.862 27.6461 21.8787 27.0211Z" fill="#A6A6A6"/>
<path d="M29.3688 28.9326C30.2625 28.8971 31.1563 28.9534 32.0458 29.0472C31.1375 29.8617 30.3438 30.7909 29.4542 31.6263C29.3875 30.7305 29.3583 29.8305 29.3688 28.9326Z" fill="white"/>
<path d="M32.0459 29.0469L32.1813 29.051V32.6427C24.0563 32.6427 15.9313 32.6406 7.8042 32.6427C7.80628 32.3385 7.80628 32.0344 7.80628 31.7302C13.8188 31.7073 19.8292 31.7302 25.8396 31.7177C27.0438 31.7094 28.2584 31.8052 29.4542 31.626C30.3438 30.7906 31.1375 29.8615 32.0459 29.0469Z" fill="#CCCCCC"/>
</svg>
