<?xml version="1.0" encoding="UTF-8"?>
<svg width="700pt" height="700pt" version="1.1" viewBox="0 0 700 700" xmlns="http://www.w3.org/2000/svg"
     fill="#429A3C" stroke="none" stroke-linecap="square" stroke-miterlimit="10" stroke-dasharray="" stroke-dashoffset="0">>
 <path d="m536.67 116.67h-373.34c-25.773 0-46.664 20.891-46.664 46.664v233.33c0 25.773 20.895 46.668 46.668 46.668h101.34l-46.668-46.668-54.68 0.003907v-116.67h246.07l56.332-56.332 56.328 56.332h14.602v116.67h-111.94l-46.668 46.668 158.61-0.003907c25.773 0 46.668-20.895 46.668-46.668l-0.003907-233.33c0-25.773-20.891-46.664-46.664-46.664zm0 93.332h-373.34v-46.668h373.33zm-70.93 46.668 32.996 32.996-177.36 177.36-111.37-111.37 32.996-32.996 78.371 78.371z"/>
</svg>