<?xml version="1.0" encoding="UTF-8"?>
<svg width="700pt" height="700pt" version="1.1" viewBox="0 0 700 700" xmlns="http://www.w3.org/2000/svg">
 <path d="m536.67 116.67h-373.34c-25.773 0-46.664 20.891-46.664 46.664v233.33c0 25.773 20.895 46.668 46.668 46.668h51.844l23.332-23.332h-75.18c-12.867 0-23.332-10.469-23.332-23.332v-140h96.852l30.652-30.652 30.652 30.652h103.68l30.652-30.652 30.66 30.652h96.848v140c0 12.867-10.469 23.332-23.332 23.332h-75.176l23.332 23.332h51.844c25.773 0 46.668-20.895 46.668-46.668l-0.003907-233.33c0-25.773-20.891-46.664-46.664-46.664zm23.332 70h-420v-23.336c0-12.867 10.469-23.332 23.332-23.332h373.33c12.867 0 23.332 10.469 23.332 23.332zm-127.5 72.344 32.996 32.996-82.496 82.496 82.496 82.496-32.996 33-82.496-82.496-82.496 82.496-32.996-33 82.496-82.496-82.496-82.496 32.996-32.996 82.496 82.496 82.496-82.496"/>
</svg>