<svg width="118" height="117" viewBox="0 0 118 117" fill="none" xmlns="http://www.w3.org/2000/svg">
<g filter="url(#filter0_dd_208_1874)">
<circle cx="59.1115" cy="58.3694" r="42.3694" fill="#CFD8DC"/>
<circle cx="59.1115" cy="58.3694" r="42.3694" fill="white"/>
<circle cx="59.1115" cy="58.3694" r="40.8694" stroke="#F3EEFD" stroke-width="3"/>
</g>
<g style="mix-blend-mode:multiply">
<path d="M71.1101 61.5269C72.7633 60.2478 72.7633 57.752 71.1101 56.4729C66.1142 52.6072 60.5355 49.5603 54.583 47.4462L53.4955 47.06C51.4151 46.3211 49.2176 47.7287 48.9359 49.8762C48.149 55.8766 48.149 62.1232 48.9359 68.1236C49.2176 70.2712 51.4151 71.6788 53.4955 70.9399L54.583 70.5536C60.5355 68.4395 66.1142 65.3926 71.1101 61.5269Z" fill="url(#paint0_linear_208_1874)"/>
</g>
<defs>
<filter id="filter0_dd_208_1874" x="0.742188" y="0" width="116.738" height="116.738" filterUnits="userSpaceOnUse" color-interpolation-filters="sRGB">
<feFlood flood-opacity="0" result="BackgroundImageFix"/>
<feColorMatrix in="SourceAlpha" type="matrix" values="0 0 0 0 0 0 0 0 0 0 0 0 0 0 0 0 0 0 127 0" result="hardAlpha"/>
<feOffset dx="4" dy="4"/>
<feGaussianBlur stdDeviation="6"/>
<feColorMatrix type="matrix" values="0 0 0 0 0.733333 0 0 0 0 0.764706 0 0 0 0 0.807843 0 0 0 0.6 0"/>
<feBlend mode="normal" in2="BackgroundImageFix" result="effect1_dropShadow_208_1874"/>
<feColorMatrix in="SourceAlpha" type="matrix" values="0 0 0 0 0 0 0 0 0 0 0 0 0 0 0 0 0 0 127 0" result="hardAlpha"/>
<feOffset dx="-4" dy="-4"/>
<feGaussianBlur stdDeviation="6"/>
<feColorMatrix type="matrix" values="0 0 0 0 0.992157 0 0 0 0 1 0 0 0 0 1 0 0 0 0.8 0"/>
<feBlend mode="normal" in2="effect1_dropShadow_208_1874" result="effect2_dropShadow_208_1874"/>
<feBlend mode="normal" in="SourceGraphic" in2="effect2_dropShadow_208_1874" result="shape"/>
</filter>
<linearGradient id="paint0_linear_208_1874" x1="48.3457" y1="59" x2="72.35" y2="59" gradientUnits="userSpaceOnUse">
<stop stop-color="#7F28D9"/>
<stop offset="1" stop-color="#7427CC"/>
</linearGradient>
</defs>
</svg>
